<?xml version="1.0" encoding="utf-8"?>
<!-- Generator: Adobe Illustrator 18.0.0, SVG Export Plug-In . SVG Version: 6.00 Build 0)  -->
<!DOCTYPE svg PUBLIC "-//W3C//DTD SVG 1.1//EN" "http://www.w3.org/Graphics/SVG/1.1/DTD/svg11.dtd">
<svg version="1.1" xmlns="http://www.w3.org/2000/svg" xmlns:xlink="http://www.w3.org/1999/xlink" x="0px" y="0px"
	 viewBox="0 0 595.3 595.3" enable-background="new 0 0 595.3 595.3" xml:space="preserve">
<g id="Capa_1">
</g>
<g id="Capa_2">
	<path opacity="0.6" fill="#53B583" d="M295.1,565.1c-38.2,0-76.3,0.6-114.5-0.1C97.3,563.3,30,496.6,28.8,413.2
		c-1.1-77.3-1-154.6,0-231.8C29.8,96.7,96.9,29.5,182.3,28c76.3-1.3,152.7-1.4,229-0.1C498.5,29.4,564.7,96,566,183
		c1.1,75.4,1.1,150.8,0.1,226.1c-1.2,90.1-68.6,155.4-159.3,155.9C369.5,565.2,332.3,565.1,295.1,565.1z"/>
	<path fill="none" stroke="#FFFFFF" stroke-width="18.6765" stroke-miterlimit="10" d="M323.4,382.8c0,25.5-0.3,51,0.2,76.5
		c0.2,8-2.4,9.9-10,9.7c-17.7-0.5-35.5-0.5-53.2,0c-7.3,0.2-9.3-1.9-9.2-9.2c0.3-51-0.1-102,0.4-153c0.1-9.1-2.8-10.9-11.1-10.7
		c-22.9,0.5-22.9,0.1-22.9-22.6c0-10.7,0.2-21.4-0.1-32.1c-0.2-5,1.5-6.8,6.3-6.1c0.4,0.1,0.7,0,1.1,0c8.4-0.2,20,2.9,24.5-1.5
		c5.9-5.7,1.7-17.4,1.8-26.4c0.1-13,0.3-25.9,4.4-38.3c8.6-26.1,26.7-41.1,53.8-44.5c20.6-2.5,41.3-0.5,62-0.9
		c5.3-0.1,5.9,2.5,5.9,6.8c-0.2,15.1-0.3,30.3,0.1,45.4c0.1,5.6-2,6.9-7.1,6.7c-9.6-0.3-19.2-0.3-28.8,0c-13.1,0.3-17.8,5-18,18.3
		c-0.1,11.1-4,25.6,1.5,32.2c5.7,6.9,20.8,1.9,31.8,2c21,0.3,21,0.1,18.9,21.2c-1.1,10.7-2.2,21.3-2.9,32c-0.4,6.1-2.8,8.3-8.9,8
		c-9.6-0.4-19.3,0.5-28.8-0.3c-9-0.7-12.1,1.8-11.8,11.3C323.9,332.5,323.4,357.6,323.4,382.8z"/>
	<path opacity="0.6" fill="#53B583" d="M323.4,384.4c0,25.5-0.3,51,0.2,76.5c0.2,8-2.4,9.9-10,9.7c-17.7-0.5-35.5-0.5-53.2,0
		c-7.3,0.2-9.3-1.9-9.2-9.2c0.3-51-0.1-102,0.4-153c0.1-9.1-2.8-10.9-11.1-10.7c-22.9,0.5-22.9,0.1-22.9-22.6
		c0-10.7,0.2-21.4-0.1-32.1c-0.2-5,1.5-6.8,6.3-6.1c0.4,0.1,0.7,0,1.1,0c8.4-0.2,20,2.9,24.5-1.5c5.9-5.7,1.7-17.4,1.8-26.4
		c0.1-13,0.3-25.9,4.4-38.3c8.6-26.1,26.7-41.1,53.8-44.5c20.6-2.5,41.3-0.5,62-0.9c5.3-0.1,5.9,2.5,5.9,6.8
		c-0.2,15.1-0.3,30.3,0.1,45.4c0.1,5.6-2,6.9-7.1,6.7c-9.6-0.3-19.2-0.3-28.8,0c-13.1,0.3-17.8,5-18,18.3c-0.1,11.1-4,25.6,1.5,32.2
		c5.7,6.9,20.8,1.9,31.8,2c21,0.3,21,0.1,18.9,21.2c-1.1,10.7-2.2,21.3-2.9,32c-0.4,6.1-2.8,8.3-8.9,8c-9.6-0.4-19.3,0.5-28.8-0.3
		c-9-0.7-12.1,1.8-11.8,11.3C323.9,334.2,323.4,359.3,323.4,384.4z"/>
</g>
</svg>
