<?xml version="1.0" encoding="utf-8"?>
<!-- Generator: Adobe Illustrator 18.0.0, SVG Export Plug-In . SVG Version: 6.00 Build 0)  -->
<!DOCTYPE svg PUBLIC "-//W3C//DTD SVG 1.1//EN" "http://www.w3.org/Graphics/SVG/1.1/DTD/svg11.dtd">
<svg version="1.1" xmlns="http://www.w3.org/2000/svg" xmlns:xlink="http://www.w3.org/1999/xlink" x="0px" y="0px"
	 viewBox="0 0 595.3 595.3" enable-background="new 0 0 595.3 595.3" xml:space="preserve">
<g id="Capa_1">
</g>
<g id="Capa_2">
	<path opacity="0.6" fill="#53B583" d="M294.1,563.1c-38,0-76.1,0.6-114.1-0.1c-83-1.6-150.1-68-151.3-151.2c-1.1-77-1-154,0-231
		C29.8,96.4,96.6,29.5,181.7,28c76-1.3,152.1-1.4,228.1-0.1c86.9,1.5,152.9,67.8,154.2,154.5c1.1,75.1,1.1,150.2,0.1,225.3
		c-1.2,89.8-68.4,154.8-158.7,155.3C368.2,563.2,331.2,563.1,294.1,563.1z"/>
	<path opacity="0.6" fill="#53B583" d="M487.1,439.9H104.6c-4.4,0-7.9-3.6-7.9-7.9V155.7c0-4.4,3.6-7.9,7.9-7.9h382.5
		c4.4,0,7.9,3.6,7.9,7.9v276.3C495.1,436.3,491.5,439.9,487.1,439.9z"/>
	<g>
		<g id="layer1_1_" transform="translate(0,-1020.3621)">
			<g id="g7827_2_">
				<path id="path5220_3_" fill="#FFFFFF" d="M435.7,1176.6L296.8,1291l-138.9-114.4H435.7z"/>
			</g>
		</g>
		<g id="g7827_1_">
			<path id="path5220_2_" fill="#FFFFFF" d="M435.7,434H157.9"/>
			<path id="path5220_1_" fill="#FFFFFF" d="M157.9,434V213.5l138.9,114.4l138.9-114.4V434H157.9z"/>
		</g>
		<path fill="none" stroke="#FFFFFF" stroke-width="9.3036" stroke-miterlimit="10" d="M476.3,429.7H116.5c-4.4,0-7.9-3.6-7.9-7.9
			V168.6c0-4.4,3.6-7.9,7.9-7.9h359.9c4.4,0,7.9,3.6,7.9,7.9v253.1C484.3,426.2,480.7,429.7,476.3,429.7z"/>
	</g>
</g>
</svg>
