<?xml version="1.0" encoding="utf-8"?>
<!-- Generator: Adobe Illustrator 18.0.0, SVG Export Plug-In . SVG Version: 6.00 Build 0)  -->
<!DOCTYPE svg PUBLIC "-//W3C//DTD SVG 1.1//EN" "http://www.w3.org/Graphics/SVG/1.1/DTD/svg11.dtd">
<svg version="1.1" xmlns="http://www.w3.org/2000/svg" xmlns:xlink="http://www.w3.org/1999/xlink" x="0px" y="0px"
	 viewBox="0 0 595.3 595.3" enable-background="new 0 0 595.3 595.3" xml:space="preserve">
<g id="Capa_1">
</g>
<g id="Capa_2">
	<path opacity="0.6" fill="#53B583" d="M296.7,460.3c-23.2,0-46.5,0.4-69.7-0.1c-50.7-1-91.7-41.6-92.4-92.4
		c-0.7-47-0.6-94.1,0-141.1c0.6-51.5,41.5-92.5,93.4-93.4c46.4-0.8,92.9-0.8,139.4,0c53.1,0.9,93.4,41.4,94.2,94.4
		c0.7,45.9,0.7,91.8,0,137.6c-0.7,54.8-41.8,94.6-97,94.9C342,460.4,319.4,460.3,296.7,460.3z"/>
	<path opacity="0.6" fill="#53B583" d="M295.6,566.1c-38.2,0-76.5,0.6-114.7-0.1c-83.5-1.6-150.9-68.4-152.1-152
		c-1.1-77.4-1-154.9,0-232.3C29.8,96.8,97,29.5,182.6,28c76.4-1.3,153-1.4,229.4-0.1c87.4,1.5,153.7,68.2,155,155.4
		c1.1,75.5,1.1,151,0.1,226.5c-1.2,90.3-68.7,155.6-159.6,156.2C370.1,566.2,332.9,566.1,295.6,566.1z"/>
	<path fill="#FFFFFF" d="M476.6,296.6c0,25.1-0.5,50.3,0.1,75.4c1.1,44.4-26.8,78.7-62.4,94c-14.3,6.1-29.3,9.4-44.8,9.4
		c-48.5,0.1-97.1,0.7-145.7-0.2c-36.6-0.7-66.6-16-88.2-46.1c-11.3-15.9-16.7-33.9-16.7-53.4c0-51.7,0-103.3,0-155
		c0-42.2,20.6-71.7,57-90.9c15.9-8.3,33.1-11.8,51.1-11.9c47.1,0,94.2-0.3,141.3,0.1c36.6,0.3,67.1,14.3,89.6,43.7
		c12.5,16.4,18.6,35.3,18.6,56.1C476.6,243.9,476.6,270.3,476.6,296.6z M145.6,296.6c0,26.5,0,52.9,0,79.3c0,11.8,2.7,22.9,8.9,33
		c16.1,26.3,40.4,39.2,70.5,39.7c48.4,0.7,96.8,0.3,145.3,0.1c11.9,0,23.4-2.5,34.2-7.6c29.3-14,45.6-36.3,45.5-69.7
		c-0.3-51.2-0.1-102.4-0.1-153.6c0-14.5-4.1-27.8-12.7-39.4c-16.6-22.4-39.5-33.5-66.9-33.7c-48.3-0.6-96.6-0.2-144.9-0.1
		c-10.3,0-20.3,2.1-29.9,5.7c-26.5,9.9-51.2,34.9-50,71.7C146.3,246.8,145.6,271.7,145.6,296.6z"/>
	<path fill="#FFFFFF" d="M298.2,373c-46.5,0-84-37.1-84.1-83.2c-0.1-45.4,37.7-82.6,83.9-82.6c46.4-0.1,84,37.1,84.1,82.9
		C382.2,335.7,344.6,372.9,298.2,373z M298.2,346.3c31.7,0,57.3-25.3,57.3-56.5c-0.1-30.9-25.7-56.1-57.3-56.1
		c-31.7,0-57.5,25.2-57.5,56.2C240.8,321.2,266.6,346.4,298.2,346.3z"/>
	<path fill="#FFFFFF" d="M391.9,181.9c9.7,0,17.7,8.3,17.7,18.5c-0.1,10.2-8.1,18.4-17.8,18.3c-9.6-0.1-17.5-8.3-17.5-18.2
		C374.2,190.3,382.2,181.9,391.9,181.9z"/>
	<path opacity="0.6" fill="#53B583" d="M296.9,460.3c-23.2,0-46.5,0.4-69.7-0.1c-50.7-1-91.7-41.6-92.4-92.4
		c-0.7-47-0.6-94.1,0-141.1c0.6-51.5,41.5-92.5,93.4-93.4c46.4-0.8,92.9-0.8,139.4,0c53.1,0.9,93.4,41.4,94.2,94.4
		c0.7,45.9,0.7,91.8,0,137.6c-0.7,54.8-41.8,94.6-97,94.9C342.2,460.4,319.5,460.3,296.9,460.3z"/>
	<path fill="#FFFFFF" d="M298.2,373c-46.5,0-84-37.1-84.1-83.2c-0.1-45.4,37.7-82.6,83.9-82.6c46.4-0.1,84,37.1,84.1,82.9
		C382.2,335.7,344.6,372.9,298.2,373z M298.2,346.3c31.7,0,57.3-25.3,57.3-56.5c-0.1-30.9-25.7-56.1-57.3-56.1
		c-31.7,0-57.5,25.2-57.5,56.2C240.8,321.2,266.6,346.4,298.2,346.3z"/>
	<path fill="#FFFFFF" d="M391.9,181.9c9.7,0,17.7,8.3,17.7,18.5c-0.1,10.2-8.1,18.4-17.8,18.3c-9.6-0.1-17.5-8.3-17.5-18.2
		C374.2,190.3,382.2,181.9,391.9,181.9z"/>
</g>
</svg>
