<?xml version="1.0" encoding="utf-8"?>
<!-- Generator: Adobe Illustrator 18.0.0, SVG Export Plug-In . SVG Version: 6.00 Build 0)  -->
<!DOCTYPE svg PUBLIC "-//W3C//DTD SVG 1.1//EN" "http://www.w3.org/Graphics/SVG/1.1/DTD/svg11.dtd">
<svg version="1.1" xmlns="http://www.w3.org/2000/svg" xmlns:xlink="http://www.w3.org/1999/xlink" x="0px" y="0px"
	 viewBox="0 0 595.3 595.3" enable-background="new 0 0 595.3 595.3" xml:space="preserve">
<g id="Capa_1">
</g>
<g id="Capa_2">
	<path opacity="0.6" fill="#53B583" d="M293.6,562.1c-38,0-75.9,0.6-113.9-0.1c-82.9-1.6-149.8-67.9-151-150.9
		c-1.1-76.8-1-153.7,0-230.5C29.8,96.3,96.5,29.5,181.4,28c75.9-1.3,151.8-1.4,227.7-0.1c86.7,1.5,152.6,67.7,153.9,154.2
		c1.1,74.9,1.1,149.9,0.1,224.9c-1.2,89.6-68.2,154.5-158.5,155C367.6,562.2,330.6,562.1,293.6,562.1z"/>
	<path fill="#FFFFFF" d="M392.5,205.2l-188,113.1c-3.2,1.9-4.6,5.7-3.5,9.2l24.5,87.8c0.8,2.4,4.3,2.2,4.6-0.5l5.4-60.6
		c0.3-4.6,2.4-8.9,5.9-11.8l153.5-133.8C396.5,206.9,394.4,203.9,392.5,205.2z"/>
	<path fill="none" stroke="#FFFFFF" stroke-width="19.4709" stroke-miterlimit="10" d="M490,141.1l-68.9,313.2
		c-2.4,10.5-14.8,14.8-23.2,8.1l-80.8-64.1c-5.9-4.8-14.8-4-19.9,1.9l-41.5,47.9c-7.3,8.6-21.3,5.7-24.5-4.8l-36.6-112.8
		c-1.6-4.6-5.4-8.3-10-9.4l-72.4-19.1c-13.2-3.5-14.5-21.8-1.9-27.2l360.1-150C481.1,120.4,492.4,129.8,490,141.1z"/>
	<path opacity="0.6" fill="#53B583" d="M490,141.1l-68.9,313.2c-2.4,10.5-14.8,14.8-23.2,8.1l-80.8-64.1c-5.9-4.8-14.8-4-19.9,1.9
		l-41.5,47.9c-7.3,8.6-21.3,5.7-24.5-4.8l-36.6-112.8c-1.6-4.6-5.4-8.3-10-9.4l-72.4-19.1c-13.2-3.5-14.5-21.8-1.9-27.2l360.1-150
		C481.1,120.4,492.4,129.8,490,141.1z"/>
	<path fill="#FFFFFF" d="M390.2,202.2L194,315.3c-3.4,1.9-4.8,5.7-3.7,9.2l25.6,87.8c0.8,2.4,4.5,2.2,4.8-0.5l5.6-60.6
		c0.3-4.6,2.5-8.9,6.2-11.8l160.2-133.8C394.4,203.8,392.2,200.8,390.2,202.2z"/>
</g>
</svg>
